<?xml version="1.0" encoding="UTF-8"?>
<svg version="1.1" xmlns="http://www.w3.org/2000/svg" width="256" height="256">
<path d="M0 0 C23.07200024 20.12969228 37.77296528 47.33063972 41.38671875 77.81640625 C41.70106982 82.98376877 41.77689007 88.14091655 41.76171875 93.31640625 C41.76090302 94.36805466 41.76090302 94.36805466 41.7600708 95.44094849 C41.71805331 107.26618246 40.71226042 118.42801873 37.38671875 129.81640625 C37.07323486 130.9139624 37.07323486 130.9139624 36.75341797 132.03369141 C28.46490528 160.11529655 9.18650249 184.40387677 -15.61328125 199.81640625 C-16.18449707 200.17283203 -16.75571289 200.52925781 -17.34423828 200.89648438 C-32.24462521 209.96955429 -49.44241069 215.18606456 -66.61328125 217.81640625 C-67.41765625 217.94660156 -68.22203125 218.07679688 -69.05078125 218.2109375 C-85.50438838 220.35333426 -103.56363071 219.44601254 -119.6328125 215.29467773 C-128.66970966 213.11232054 -135.1132376 216.41698378 -143.11328125 220.31640625 C-156.38825009 226.78695993 -156.38825009 226.78695993 -164.61328125 225.81640625 C-167.48357994 224.02246957 -169.10459763 222.83377349 -170.61328125 219.81640625 C-170.78940465 217.71028697 -170.9116992 215.59956525 -171.0078125 213.48828125 C-171.07677734 212.21339844 -171.14574219 210.93851563 -171.21679688 209.625 C-171.32375006 207.59998714 -171.42540084 205.5753097 -171.51196289 203.54931641 C-171.59802847 201.59066525 -171.7089412 199.63315655 -171.8203125 197.67578125 C-171.87678955 196.50499023 -171.9332666 195.33419922 -171.99145508 194.12792969 C-173.20980947 187.63960658 -177.57693279 183.70966262 -182.23828125 179.37890625 C-203.85552847 158.42435821 -214.50761996 127.80455835 -215.01782227 98.22045898 C-215.37192482 65.50756188 -206.57176065 35.65763987 -184.61328125 10.81640625 C-184.15614746 10.29739746 -183.69901367 9.77838867 -183.22802734 9.24365234 C-166.6823942 -9.16956549 -144.4526002 -21.12675763 -120.61328125 -27.18359375 C-119.4325 -27.50199219 -118.25171875 -27.82039063 -117.03515625 -28.1484375 C-75.95327129 -37.32001058 -32.10891348 -26.82942098 0 0 Z " fill="#A44FD4" transform="translate(214.61328125,30.18359375)"/>
<path d="M0 0 C3.375 0.8125 3.375 0.8125 5.375 2.8125 C5.5 6.4375 5.5 6.4375 5.375 9.8125 C4.715 9.8125 4.055 9.8125 3.375 9.8125 C3.04628906 10.78316406 3.04628906 10.78316406 2.7109375 11.7734375 C0.88081065 15.93670852 -1.54176712 19.61967494 -4 23.4375 C-5.09260533 25.14963914 -6.18504882 26.86188157 -7.27734375 28.57421875 C-7.83534668 29.4461084 -8.39334961 30.31799805 -8.96826172 31.21630859 C-11.02657775 34.44179234 -13.06296636 37.68072305 -15.09765625 40.92114258 C-17.07288438 44.0614261 -19.06207977 47.1927664 -21.05126953 50.32421875 C-22.14607792 52.05525925 -23.23518153 53.78991552 -24.31982422 55.52734375 C-26.03543154 58.27539884 -27.76646916 61.01322582 -29.5 63.75 C-30.02327881 64.5968335 -30.54655762 65.44366699 -31.08569336 66.31616211 C-34.53163652 71.71332321 -37.4817397 75.38752823 -43.71484375 77.53125 C-44.34519531 77.6240625 -44.97554688 77.716875 -45.625 77.8125 C-46.70974609 77.98265625 -46.70974609 77.98265625 -47.81640625 78.15625 C-59.90897278 78.95312424 -69.08726662 69.05610104 -77.9921875 61.96435547 C-80.18550222 60.22263414 -82.39723858 58.50991173 -84.625 56.8125 C-85.3994043 56.21711426 -86.17380859 55.62172852 -86.97167969 55.00830078 C-91.38787895 51.79253412 -91.38787895 51.79253412 -96.5859375 50.4921875 C-101.37004238 52.57062895 -105.18886902 55.69962193 -109.25 58.9375 C-111.11126864 60.39023371 -112.9732678 61.84203188 -114.8359375 63.29296875 C-115.78694336 64.03853027 -116.73794922 64.7840918 -117.71777344 65.55224609 C-122.38815254 69.18328151 -127.13144538 72.71543436 -131.875 76.25 C-133.54748274 77.4978838 -135.21941234 78.74650952 -136.890625 79.99609375 C-137.93911621 80.77811157 -137.93911621 80.77811157 -139.00878906 81.57592773 C-140.57236807 82.71589685 -140.57236807 82.71589685 -141.625 83.8125 C-144.5 84.125 -144.5 84.125 -147.625 83.8125 C-149.8112568 81.84486888 -150.5028703 80.53358496 -150.9921875 77.64453125 C-150.44528951 73.42643502 -148.25254405 70.64534563 -145.875 67.1875 C-144.85303004 65.65570563 -143.83223705 64.1231255 -142.8125 62.58984375 C-142.28269531 61.7994873 -141.75289062 61.00913086 -141.20703125 60.19482422 C-138.69994306 56.41948988 -136.28662812 52.58675521 -133.875 48.75 C-133.39063477 47.98268555 -132.90626953 47.21537109 -132.40722656 46.42480469 C-129.47703039 41.77762299 -126.56908988 37.11703144 -123.671875 32.44921875 C-122.99995117 31.36842041 -122.32802734 30.28762207 -121.63574219 29.17407227 C-120.32102504 27.05785016 -119.00905881 24.93991589 -117.70019531 22.82006836 C-117.09788086 21.85077393 -116.49556641 20.88147949 -115.875 19.8828125 C-115.34390625 19.02445801 -114.8128125 18.16610352 -114.265625 17.28173828 C-110.86851816 12.16889028 -107.57675937 7.91711453 -101.625 5.8125 C-93.204938 4.59416305 -87.04481851 6.94900173 -80.27734375 11.81640625 C-78.70111082 12.99646034 -77.12966748 14.1829329 -75.5625 15.375 C-73.88040458 16.62786769 -72.19811122 17.88046966 -70.515625 19.1328125 C-67.49069466 21.40091991 -64.48235816 23.68864412 -61.484375 25.9921875 C-60.26068146 26.91181078 -59.03674052 27.83110501 -57.8125 28.75 C-57.26907959 29.18062744 -56.72565918 29.61125488 -56.16577148 30.05493164 C-53.67092695 31.90957198 -51.93786523 32.79335387 -48.81640625 32.984375 C-44.01570706 31.22157236 -40.37845525 28.25928405 -36.375 25.125 C-35.50617188 24.45887695 -34.63734375 23.79275391 -33.7421875 23.10644531 C-31.02725237 21.02007668 -28.3252935 18.91777221 -25.625 16.8125 C-23.90137768 15.47743066 -22.17742915 14.14278235 -20.453125 12.80859375 C-16.76471531 9.95018589 -13.08533287 7.08058031 -9.4140625 4.20019531 C-8.82367188 3.74225586 -8.23328125 3.28431641 -7.625 2.8125 C-6.965 2.25530273 -6.305 1.69810547 -5.625 1.12402344 C-3.625 -0.1875 -3.625 -0.1875 0 0 Z " fill="#FDFCFE" transform="translate(200.625,86.1875)"/>
</svg>
